<?xml version="1.0" encoding="UTF-8"?><svg id="Scalapay_checkout-badge_pink_120x80" xmlns="http://www.w3.org/2000/svg" viewBox="0 0 120 80"><rect x="-.14" y="-.04" width="120.29" height="80.08" rx="8.83" ry="8.83" fill="#f7cbcf"/><g><path d="M14.66,46.58c-.24,0-.44-.08-.6-.24-.06-.06-.11-.12-.17-.19-2.22-2.53-4.43-5.07-6.65-7.61-.05-.06-.11-.12-.16-.19-.24-.33-.23-.73,.02-1.04,.05-.06,.11-.12,.17-.19,.99-1.02,1.98-2.04,2.96-3.06,.06-.06,.11-.12,.18-.18,.33-.29,.79-.29,1.12,0,.08,.07,.16,.15,.23,.23,.69,.72,1.39,1.43,2.09,2.15,.08,.08,.15,.16,.23,.23,.11,.1,.23,.17,.37,.2,.28,.07,.53,0,.74-.17,.08-.07,.16-.15,.23-.23,.68-.7,1.36-1.4,2.04-2.1,.08-.08,.15-.16,.23-.23,.33-.3,.81-.31,1.15,0,.06,.05,.12,.12,.18,.18,.98,1.01,1.96,2.02,2.94,3.03,.04,.04,.08,.09,.12,.13,.29,.32,.32,.77,.04,1.12-.05,.05-.09,.11-.14,.16-2.18,2.49-4.35,4.99-6.53,7.48-.07,.08-.14,.16-.22,.24-.14,.16-.34,.24-.55,.26Z"/><path d="M77.9,42.37v-7.19c0-.12,0-.24,0-.36,0-.04,.06-.09,.1-.1,.06,0,.12-.01,.18-.01h1.99s.07,0,.11,0c.11,0,.16,.05,.16,.15,0,.11,0,.21,0,.32,0,.07,0,.14,.01,.21,0,.03,.06,.05,.09,.04,.09-.06,.18-.12,.27-.18,.67-.44,1.4-.69,2.2-.74,1.73-.09,3.09,.59,4.12,1.95,.48,.63,.78,1.35,.94,2.13,.09,.45,.15,.9,.13,1.36-.03,.97-.25,1.88-.73,2.73-.74,1.3-1.86,2.08-3.32,2.39-.53,.11-1.05,.12-1.58,.05-.58-.07-1.12-.28-1.61-.59-.1-.06-.2-.13-.3-.2-.04-.03-.1,0-.1,.06,0,.12,0,.24,0,.36v5.06c0,.2-.03,.23-.23,.23h-2.24c-.14,0-.18-.04-.18-.16,0-.07,0-.15,0-.21v-.4c0-2.3,0-4.6,0-6.9Zm2.65-2.52h0v1.37c0,.11,.03,.21,.11,.3,.26,.32,.56,.59,.93,.79,.67,.35,1.37,.44,2.1,.23,.79-.23,1.32-.75,1.64-1.51,.18-.43,.24-.88,.22-1.34-.03-.57-.19-1.09-.51-1.56-.37-.54-.86-.9-1.51-1.04-.35-.08-.69-.07-1.04-.01-.74,.13-1.34,.5-1.83,1.07-.08,.1-.12,.2-.12,.33,0,.46,0,.92,0,1.37Z"/><path d="M74.85,39.85v4.69c0,.43,.04,.42-.4,.42h-1.88c-.25,0-.26-.02-.27-.26,0-.15,0-.29-.02-.43,0-.01-.04-.03-.05-.03-.02,0-.05,.01-.06,.03-.05,.03-.1,.07-.15,.11-.75,.56-1.6,.81-2.53,.8-1.54-.01-3.16-.8-4.09-2.32-.45-.73-.71-1.52-.8-2.37-.11-.98,.02-1.92,.38-2.83,.34-.87,.88-1.6,1.61-2.18,.64-.5,1.36-.82,2.16-.93,1.18-.15,2.27,.06,3.26,.76,.07,.05,.14,.09,.21,.13,.01,0,.05,0,.06-.02,.01-.02,.02-.04,.02-.06,0-.1,0-.19,0-.29,0-.34,0-.35,.33-.35h1.88c.08,0,.17,0,.25,.02,.03,0,.06,.04,.08,.07,.01,.03,.01,.07,.01,.11v.4c0,1.5,0,3.01,0,4.53Zm-2.66,0h0c0-.46,0-.91,0-1.37,0-.13-.04-.23-.11-.33-.4-.47-.88-.81-1.48-.99-.44-.14-.9-.16-1.36-.07-.66,.13-1.16,.49-1.54,1.05-.25,.37-.4,.77-.47,1.2-.11,.65-.03,1.27,.26,1.86,.31,.63,.79,1.07,1.47,1.31,.31,.11,.63,.14,.96,.13,.9-.04,1.61-.42,2.17-1.11,.07-.09,.11-.18,.11-.3-.01-.47,0-.92,0-1.38Z"/><path d="M100.14,39.83v4.65c0,.11,0,.21,0,.32,0,.11-.05,.14-.16,.15-.04,0-.07,0-.11,0h-2.02s-.07,0-.11,0c-.09,0-.14-.05-.14-.13,0-.16,0-.31,0-.47,0-.04,0-.07-.02-.11,0-.01-.05-.03-.06-.02-.06,.03-.12,.07-.18,.11-.26,.2-.54,.36-.84,.49-.47,.2-.96,.31-1.47,.32-1.46,.04-2.71-.46-3.73-1.51-.57-.59-.95-1.3-1.2-2.08-.23-.76-.31-1.53-.23-2.32,.09-.89,.35-1.72,.82-2.48,.42-.68,.97-1.23,1.65-1.63,.68-.4,1.4-.62,2.19-.64,.76-.02,1.48,.11,2.17,.45,.21,.1,.4,.22,.59,.35,.07,.05,.14,.09,.21,.14,.02,.01,.08-.01,.09-.04,0-.05,0-.1,0-.14,0-.13,0-.26,0-.4,0-.09,.05-.14,.13-.14,.05,0,.1,0,.15,0h1.99c.07,0,.14,.01,.21,.02,.02,0,.04,.03,.05,.05,.01,.03,.02,.07,.02,.11,0,.11,0,.21,0,.32,0,1.54,0,3.08,0,4.62Zm-2.66,0c0-.46,0-.91,0-1.37,0-.13-.05-.23-.12-.32-.47-.56-1.07-.93-1.79-1.05-.44-.08-.89-.07-1.32,.08-.63,.22-1.1,.64-1.4,1.23-.43,.84-.48,1.7-.15,2.58,.28,.75,.81,1.26,1.57,1.53,.3,.11,.61,.14,.92,.13,.9-.03,1.62-.41,2.18-1.1,.08-.1,.11-.21,.11-.33,0-.46,0-.92,0-1.37Z"/><path d="M56.56,44.91s-.05,.03-.07,.04c-.05,0-.1,.01-.14,.01h-2.1s-.1,0-.14-.02c-.02,0-.04-.03-.05-.05-.01-.03-.02-.07-.02-.11,0-.16,0-.32,0-.47,0-.03,0-.08-.05-.08-.03,0-.07,0-.1,.03-.04,.02-.08,.05-.11,.09-.76,.57-1.62,.83-2.56,.82-1.51-.01-3.15-.78-4.09-2.32-.47-.78-.74-1.61-.81-2.52-.07-.9,.04-1.78,.37-2.62,.32-.82,.8-1.53,1.48-2.11,.67-.57,1.43-.94,2.3-1.05,1.17-.16,2.28,.05,3.27,.74,.08,.05,.16,.1,.25,.15,0,0,.05-.02,.05-.03,0-.12,.01-.24,.02-.36,0-.34,0-.34,.34-.34h1.88c.06,0,.12,0,.18,0,.1,0,.14,.05,.15,.16,0,.08,0,.17,0,.25v9.43c0,.13,0,.25-.03,.36Zm-2.63-5.09c0-.43,0-.87,0-1.3,0-.18-.06-.32-.18-.45-.64-.71-1.43-1.07-2.4-1.04-.55,.02-1.03,.21-1.45,.57-.31,.26-.54,.58-.7,.95-.32,.75-.37,1.51-.11,2.29,.26,.8,.79,1.36,1.59,1.65,.31,.11,.63,.15,.96,.14,.87-.03,1.57-.39,2.13-1.05,.11-.12,.16-.26,.16-.42,0-.45,0-.9,0-1.34Z"/><path d="M104.8,34.73c.07,.14,.13,.26,.18,.38,.84,1.79,1.68,3.57,2.53,5.36,.05,.11,.08,.23,.18,.31,.08-.03,.09-.11,.12-.17,.17-.39,.34-.77,.5-1.16,.63-1.46,1.26-2.91,1.9-4.37,.05-.11,.1-.22,.16-.33,.07,0,.14-.03,.21-.03,.21,0,.41,0,.61,0h1.63c.08,0,.16,.01,.25,.02,.03,0,.05,.03,.04,.05-.02,.07-.04,.14-.06,.2-.28,.63-.56,1.26-.84,1.88-1.9,4.27-3.79,8.53-5.69,12.8-.05,.12-.1,.25-.19,.36-.05,0-.11,.01-.17,.01h-2.35s-.1,0-.14-.02c-.01,0-.04-.04-.03-.05,.01-.06,.03-.11,.05-.17,.16-.37,.32-.73,.48-1.09,.65-1.46,1.31-2.92,1.96-4.38,.05-.1,.09-.2,.13-.3,.03-.07,.03-.14,0-.21-.05-.11-.11-.22-.16-.32-1.34-2.8-2.69-5.6-4.03-8.4-.05-.1-.09-.2-.13-.3,0-.02,.03-.08,.05-.08,.05,0,.1,0,.14,0h2.42c.06,0,.14,0,.24,.02Z"/><path d="M43.05,41.33c.05,.04,.11,.07,.17,.12,.59,.47,1.21,.91,1.78,1.41,0,0,0,.02,.01,.03,0,.02,0,.05-.02,.07-.55,.76-1.24,1.37-2.11,1.76-.55,.25-1.14,.39-1.74,.43-.32,.02-.65,.03-.97,0-2.16-.12-4.06-1.56-4.69-3.77-.18-.62-.26-1.25-.2-1.89,.15-1.88,1.01-3.34,2.64-4.31,.76-.45,1.59-.66,2.48-.69,.99-.03,1.91,.18,2.77,.67,.56,.32,1.05,.72,1.46,1.22,.03,.04,.06,.08,.08,.12,0,.02,0,.05,0,.07-.04,.05-.08,.09-.12,.13-.5,.46-1,.91-1.49,1.36-.05,.04-.09,.08-.14,.12-.04,.03-.09,.02-.13-.02-.05-.06-.11-.13-.17-.19-.2-.21-.42-.4-.66-.55-.92-.58-2.12-.51-2.95,.11-.5,.37-.83,.87-1,1.47-.17,.62-.16,1.24,.05,1.85,.39,1.16,1.39,1.71,2.32,1.77,.98,.06,1.75-.31,2.39-1.04,.07-.08,.14-.16,.21-.25,0,0,.02,0,.05-.02Z"/><path d="M33.32,35.55c-.42,.65-.79,1.3-1.22,1.91,0,0-.02,0-.05,.02-.08-.05-.17-.11-.26-.16-.35-.22-.73-.38-1.13-.45-.37-.07-.74-.06-1.11,.05-.14,.04-.27,.1-.39,.19-.07,.06-.15,.13-.2,.21-.17,.25-.14,.54,.08,.75,.1,.09,.21,.17,.32,.22,.17,.08,.35,.16,.53,.23,.33,.12,.66,.23,.99,.35,.35,.12,.7,.26,1.03,.44,.26,.13,.5,.29,.72,.47,.62,.51,.95,1.17,1,1.97,.02,.39,0,.77-.12,1.14-.18,.54-.49,.99-.93,1.35-.44,.37-.95,.61-1.5,.76-.5,.14-1.01,.19-1.53,.18-1.15-.03-2.2-.36-3.18-.94-.17-.11-.34-.22-.51-.34-.1-.06-.1-.11-.04-.21,.37-.57,.74-1.13,1.11-1.69,.02-.03,.05-.06,.07-.08,.01-.01,.05-.02,.06,0,.06,.04,.12,.08,.18,.12,.75,.56,1.59,.83,2.53,.82,.18,0,.36-.02,.53-.08,.1-.04,.2-.08,.29-.14,.08-.05,.16-.11,.22-.18,.25-.27,.25-.64,0-.92-.1-.11-.21-.2-.33-.27-.16-.09-.32-.17-.48-.24-.31-.12-.63-.23-.95-.36-.3-.11-.61-.23-.9-.36-.22-.09-.43-.21-.64-.34s-.4-.27-.57-.44c-.39-.38-.63-.84-.7-1.39-.14-1,.16-1.85,.88-2.56,.45-.44,.99-.72,1.59-.9,.33-.1,.68-.16,1.03-.17,1.08-.05,2.1,.2,3.07,.68,.14,.07,.27,.16,.4,.24,.03,.02,.06,.06,.12,.12Z"/><path d="M59.65,37.45v-6.97c0-.6-.06-.52,.51-.53,.57,0,1.13,0,1.7,0,.11,0,.21,0,.32,0,.06,0,.11,.05,.11,.12,0,.1,0,.19,0,.29v14.19c0,.1,0,.19,0,.29,0,.04-.05,.1-.09,.1-.05,0-.1,.01-.14,.01h-2.16s-.1,0-.14-.01c-.04,0-.09-.05-.09-.1,0-.04,0-.07,0-.11v-.32c0-2.32,0-4.64,0-6.96Z"/></g></svg>